<svg clip-rule="evenodd" fill-rule="evenodd" stroke-linejoin="round" stroke-miterlimit="2" viewBox="0 0 560 400" xmlns="http://www.w3.org/2000/svg"><g fill-rule="nonzero" transform="matrix(.700758 0 0 -.700758 -135.17 2299.89)"><g fill="#6b6b6a"><path d="m0 0h-5.121l-11.69 32.852c-.968 2.702-2.124 6.088-3.285 9.947h-.193c-1.156-3.768-2.316-6.958-3.378-9.947l-12.174-32.852h-5.22l-22.125 63.965h7.638l14.204-42.512c1.153-3.58 2.218-6.762 3.088-9.952h.185c.873 3.092 2.128 6.278 3.382 9.755l11.022 30.149-4.351 12.56h7.442l14.589-42.123c1.251-3.674 2.51-6.762 3.383-9.857h.189c.771 3.194 1.64 6.085 2.801 9.558l13.908 42.422h7.442z" transform="translate(443.637 2956.43)"/><path d="m0 0c-8.602 0-13.523-6.958-13.523-17.779 0-10.813 5.117-17.972 13.621-17.972s13.622 7.159 13.622 17.972c0 10.821-4.917 17.779-13.72 17.779m14.4-36.132c-3.579-3.67-8.602-5.704-14.498-5.704-5.7 0-10.628 1.932-14.2 5.605-4.154 4.245-6.38 10.719-6.38 18.259 0 7.533 2.325 13.815 6.38 18.063 3.674 3.768 8.598 5.896 14.298 5.896 5.896 0 10.821-2.128 14.498-5.896 4.052-4.248 6.376-10.53 6.376-18.063 0-7.54-2.324-13.912-6.474-18.16" transform="translate(484.528 2997.3)"/><path d="m0 0c-5.605 0-8.02 3.583-8.02 8.409v60.964h7.052v-57.777c0-4.347 1.066-5.216 3.772-5.216.477 0 1.248 0 2.408.283l.869-5.113c-2.12-1.07-3.757-1.55-6.081-1.55" transform="translate(522.594 2955.46)"/><path d="m0 0c-6.565 0-9.759 3.863-9.759 9.759v30.924h-7.438v5.987h7.438v10.049l7.053 2.412v-12.461h14.011l-2.514-5.987h-11.497v-28.8c0-3.867 1.447-5.601 4.448-5.601 3.281 0 6.278 1.833 8.115 3.284l2.219-5.023c-3.383-2.51-7.824-4.543-12.076-4.543" transform="translate(549.265 2955.46)"/><path d="m0 0c-6.769 0-11.017-5.991-11.017-13.236h21.543c0 6.372-3.575 13.236-10.526 13.236m-11.108-19.223c0-8.7 5.023-16.429 15.16-16.429 3.866 0 8.122 1.549 10.824 3.288l2.128-4.834c-3.292-2.706-9.086-4.638-14.392-4.638-14.302 0-21.256 11.69-21.256 24.737 0 13.236 7.536 23.086 18.546 23.086 11.784 0 18.262-9.366 18.262-23.569v-1.641z" transform="translate(582.822 2997.3)"/><path d="m0 0c-.964.386-2.415.775-4.346.775-2.699 0-7.148-2.325-10.05-5.511v-33.913h-7.053v45.702h5.798l.971-5.216c6.278 5.699 9.755 6.38 13.036 6.38 2.03 0 3.772-.775 4.637-1.357z" transform="translate(632.07 2995.07)"/><path d="m0 0c-6.769 0-11.017-5.991-11.017-13.236h21.543c0 6.372-3.572 13.236-10.526 13.236m-11.108-19.223c0-8.7 5.023-16.429 15.16-16.429 3.866 0 8.122 1.549 10.824 3.288l2.128-4.834c-3.292-2.706-9.086-4.638-14.392-4.638-14.302 0-21.256 11.69-21.256 24.737 0 13.236 7.536 23.086 18.546 23.086 11.784 0 18.262-9.366 18.262-23.569v-1.641z" transform="translate(896.97 2997.3)"/><path d="m0 0c-.964.386-2.415.775-4.346.775-2.699 0-7.148-2.325-10.05-5.511v-33.913h-7.053v45.702h5.798l.971-5.216c6.278 5.699 9.755 6.38 13.036 6.38 2.03 0 3.776-.775 4.641-1.357z" transform="translate(946.217 2995.07)"/><path d="m0 0c-6.573 0-10.53 1.739-13.527 3.481l2.702 5.507c2.128-1.35 6.089-3.285 11.116-3.285 5.605 0 9.66 2.514 9.66 6.766 0 11.206-20.776 7.241-20.776 23.278 0 6.572 4.74 12.075 15.175 12.075 4.83 0 8.497-1.05 11.494-2.407v-6.187c-3.183 1.345-6.467 2.702-11.21 2.702-4.634 0-8.497-1.64-8.497-5.798 0-10.235 21.158-7.634 21.158-22.601 0-9.57-7.918-13.531-17.295-13.531" transform="translate(649.977 2955.46)"/><path d="m0 0-25.414 28.789h-.098v-28.789h-7.049v63.674h7.049v-29.277h.098l23.672 29.08h8.795l-26.193-31.302 28.502-32.175z" transform="translate(729.786 2956.43)"/><path d="m0 0c-5.609 0-8.02 3.583-8.02 8.409v60.964h7.049v-57.777c0-4.347 1.062-5.216 3.768-5.216.48 0 1.258 0 2.419.283l.865-5.113c-2.124-1.07-3.772-1.55-6.081-1.55" transform="translate(753.937 2955.46)"/><path d="m0 0-1.833 4.736c-3.383-2.899-8.697-5.704-14.786-5.704-6.172 0-13.901 3.187-13.901 16.041v30.629h7.042v-29.953c0-7.631 3.189-10.632 8.893-10.632 5.798 0 10.239 3.674 12.17 6.093v34.492h7.056v-26.57c0-14.396.288-17.197.972-19.132z" transform="translate(797.598 2956.43)"/><path d="m0 0h-6.384l-11.399 36.624h-.291l-11.3-36.624h-6.184l-15.269 45.702h7.155l11.206-36.038h.287l11.305 36.038h6.38l11.399-36.14h.287l11.013 36.14h6.86z" transform="translate(860.308 2956.43)"/><path d="m0 0c.866 0 1.625.344 1.625 1.202 0 .51-.219.899-.669 1.013-.249.109-.525.128-.914.128h-.446v-2.343zm-2.086 3.681h2.574c.525 0 .986-.064 1.322-.196 1.085-.318 1.614-1.142 1.614-2.087 0-1.338-1.009-2.029-1.95-2.256v-.034c.567-.283 1.444-1.931 2.434-3.749h-1.935c-1.089 1.976-1.739 3.284-2.094 3.311h-.283v-3.311h-1.682z" transform="translate(351.352 2961.07)"/></g><path d="m0 0c-4.305 1.039-8.769 1.618-13.391 1.618s-9.093-.579-13.391-1.618v-14.99h26.782z" fill="#b1cdec" transform="translate(305.872 3051.77)"/><path d="m279.092 2983.21h26.782v26.786h-26.782z" fill="#e73037"/><path d="m279.092 2956.43h26.782v26.782h-26.782z" fill="#a6ca61"/><path d="m0 0c4.297-1.039 8.769-1.618 13.391-1.618s9.086.579 13.391 1.618v14.993h-26.782z" fill="#4ba0d8" transform="translate(279.091 2941.43)"/><path d="m279.092 3009.99h26.782v26.786h-26.782z" fill="#d4e5b5"/><path d="m252.306 2983.21h26.786v26.786h-26.786z" fill="#d4e5b5"/><path d="m252.306 2956.43h26.786v26.782h-26.786z" fill="#80ba27"/><path d="m0 0c7.253-7.253 16.479-12.499 26.786-14.993v14.993z" fill="#007ac2" transform="translate(252.306 2956.43)"/><path d="m252.306 3009.99h26.786v26.786h-26.786z" fill="#a6ca61"/><path d="m0 0c-10.307-2.494-19.533-7.737-26.786-14.99h26.786z" fill="#4ba0d8" transform="translate(279.091 3051.77)"/><path d="m0 0v26.782l-14.99.004c2.499-10.303 7.737-19.537 14.99-26.786" fill="#007ac2" transform="translate(252.306 2956.43)"/><path d="m0 0c-7.253-7.253-12.491-16.483-14.99-26.786h14.99z" fill="#4ba0d8" transform="translate(252.306 3036.78)"/><path d="m305.873 2983.21h26.786v26.786h-26.786z" fill="#a6ca61"/><path d="m305.873 2956.43h26.786v26.782h-26.786z" fill="#80ba27"/><path d="m0 0h-26.786v-14.993c10.303 2.494 19.537 7.733 26.786 14.993" fill="#007ac2" transform="translate(332.658 2956.43)"/><path d="m305.873 3009.99h26.786v26.786h-26.786z" fill="#80ba27"/><path d="m0 0v-14.99h26.786c-7.25 7.253-16.483 12.499-26.786 14.99" fill="#007ac2" transform="translate(305.872 3051.77)"/><path d="m0 0c7.253 7.249 12.491 16.483 14.99 26.786l-14.99-.004z" fill="#007ac2" transform="translate(332.658 2956.43)"/><path d="m0 0v-26.786h14.99c-2.499 10.303-7.733 19.533-14.99 26.786" fill="#007ac2" transform="translate(332.658 3036.78)"/><path d="m0 0c-1.039-4.309-1.614-8.769-1.614-13.391s.575-9.09 1.614-13.391l14.99-.004v26.786z" fill="#b1cdec" transform="translate(237.315 3009.99)"/><path d="m0 0c1.039 4.301 1.618 8.769 1.618 13.391s-.579 9.082-1.618 13.391h-14.99v-26.786z" fill="#4ba0d8" transform="translate(347.649 2983.21)"/><path d="m0 0c-3.364 0-6.089-2.729-6.089-6.089 0-3.364 2.725-6.092 6.089-6.092s6.093 2.728 6.093 6.092c0 3.36-2.729 6.089-6.093 6.089m7.718-6.089c0-4.259-3.455-7.714-7.718-7.714-4.26 0-7.71 3.455-7.71 7.714 0 4.26 3.45 7.714 7.71 7.714 4.263 0 7.718-3.454 7.718-7.714" fill="#6b6b6a" transform="translate(351.908 2966.56)"/></g></svg>